<svg data-v-fde0c5aa="" xmlns="http://www.w3.org/2000/svg" viewBox="0 0 300 300" class="iconAbove"><!----><defs data-v-fde0c5aa=""><!----></defs><rect data-v-fde0c5aa="" fill="transparent" x="0" y="0" width="300px" height="300px" class="logo-background-square"></rect><defs data-v-fde0c5aa=""><!----></defs><g data-v-fde0c5aa="" id="e3ab62dd-149d-4d88-9791-63720ed74009" fill="#000000" transform="matrix(3.7275985663082443,0,0,3.7275985663082443,18.322580578506606,171.31971351049282)"><path d="M2.66 14.35L7.07 14.35L7.07 13.57L5.75 13.57L5.75 5.45L7.92 5.45L7.92 7.07L9.28 7.07L9.28 4.58L0.45 4.58L0.45 7.07L1.81 7.07L1.81 5.45L3.98 5.45L3.98 13.57L2.66 13.57ZM13.20 14.52C14.91 14.52 15.88 13.48 16.23 12.53L15.58 12.15C15.25 12.85 14.62 13.37 13.52 13.37C12.31 13.37 11.51 12.56 11.51 11.16L11.51 10.71L16.38 10.71L16.38 10.30C16.38 8.27 15.13 6.90 13.10 6.90C11.10 6.90 9.69 8.40 9.69 10.71C9.69 12.95 10.96 14.52 13.20 14.52ZM11.51 9.74C11.51 8.44 12.08 7.73 13.12 7.73C14.14 7.73 14.64 8.47 14.64 9.77L14.64 9.94L11.51 9.94ZM21.03 14.52C22.72 14.52 23.62 13.48 23.98 12.50L23.34 12.12C23.00 12.84 22.40 13.37 21.29 13.37C20.08 13.37 19.35 12.53 19.35 11.17L19.35 9.93C19.35 8.58 20.16 7.69 21.39 7.69C21.91 7.69 22.23 7.77 22.44 7.87L22.44 7.92C22.08 8.08 21.81 8.40 21.81 8.86C21.81 9.39 22.16 9.80 22.81 9.80C23.44 9.80 23.84 9.38 23.84 8.72C23.84 7.67 22.85 6.90 21.20 6.90C19.08 6.90 17.53 8.33 17.53 10.71C17.53 12.92 18.77 14.52 21.03 14.52ZM24.89 14.35L28.48 14.35L28.48 13.57L27.54 13.57L27.54 9.27C27.54 8.40 28.34 8.01 29.06 8.01C30.07 8.01 30.51 8.55 30.51 9.70L30.51 13.57L29.57 13.57L29.57 14.35L33.15 14.35L33.15 13.57L32.19 13.57L32.19 9.62C32.19 7.81 31.50 6.90 29.69 6.90C28.55 6.90 27.86 7.55 27.61 8.19L27.54 8.19L27.54 3.57L24.89 4.09L24.89 4.73L25.86 4.91L25.86 13.57L24.89 13.57ZM37.44 17.32C39.98 17.32 41.27 16.39 41.27 14.94C41.27 13.71 40.47 12.96 38.61 12.96L36.95 12.96C36.19 12.96 35.88 12.80 35.88 12.36C35.88 12.03 36.18 11.73 36.57 11.62C36.85 11.68 37.16 11.70 37.48 11.70C39.26 11.70 40.49 10.81 40.49 9.30C40.49 8.55 40.19 8.08 39.84 7.73L39.84 7.20L39.89 7.20C40.05 7.41 40.32 7.50 40.60 7.50C41.12 7.50 41.45 7.20 41.45 6.71C41.45 6.22 41.12 5.91 40.60 5.91C39.91 5.91 39.42 6.31 39.38 7.39C38.88 7.10 38.25 6.90 37.46 6.90C35.70 6.90 34.47 7.80 34.47 9.31C34.47 10.35 35.04 11.07 35.97 11.44L35.97 11.51C35.24 11.68 34.62 12.12 34.62 12.92C34.62 13.59 35 14.04 35.63 14.21L35.63 14.27C34.80 14.43 34.08 14.92 34.08 15.64C34.08 16.67 34.90 17.32 37.44 17.32ZM37.48 10.92C36.61 10.92 36.18 10.42 36.18 9.52L36.18 9.10C36.18 8.20 36.61 7.70 37.48 7.70C38.35 7.70 38.78 8.20 38.78 9.10L38.78 9.52C38.78 10.42 38.35 10.92 37.48 10.92ZM35.48 15.51C35.48 15.06 35.66 14.73 36.11 14.48L38.43 14.48C39.45 14.48 39.89 14.74 39.89 15.40C39.89 16.10 39.17 16.51 37.93 16.51L37.14 16.51C36.06 16.51 35.48 16.18 35.48 15.51ZM45.57 14.52C47.28 14.52 48.24 13.48 48.59 12.53L47.95 12.15C47.61 12.85 46.98 13.37 45.89 13.37C44.67 13.37 43.88 12.56 43.88 11.16L43.88 10.71L48.75 10.71L48.75 10.30C48.75 8.27 47.50 6.90 45.47 6.90C43.47 6.90 42.06 8.40 42.06 10.71C42.06 12.95 43.33 14.52 45.57 14.52ZM43.88 9.74C43.88 8.44 44.45 7.73 45.49 7.73C46.51 7.73 47.01 8.47 47.01 9.77L47.01 9.94L43.88 9.94ZM52.26 14.46C53.07 14.46 53.87 14.32 54.19 14.17L54.19 13.51L52.42 13.51L52.42 7.92L54.19 7.92L54.19 7.07L52.42 7.07L52.42 5.12L51.55 5.12L51.09 6.36C50.90 6.83 50.74 7.07 50.01 7.07L49.77 7.07L49.77 7.92L50.74 7.92L50.74 13.03C50.74 14.03 51.16 14.46 52.26 14.46ZM54.95 14.35L58.53 14.35L58.53 13.57L57.60 13.57L57.60 9.27C57.60 8.40 58.39 8.01 59.12 8.01C60.13 8.01 60.56 8.55 60.56 9.70L60.56 13.57L59.63 13.57L59.63 14.35L63.21 14.35L63.21 13.57L62.24 13.57L62.24 9.62C62.24 7.81 61.56 6.90 59.75 6.90C58.60 6.90 57.92 7.55 57.67 8.19L57.60 8.19L57.60 3.57L54.95 4.09L54.95 4.73L55.92 4.91L55.92 13.57L54.95 13.57ZM64.26 14.35L68.15 14.35L68.15 13.57L66.91 13.57L66.91 9.24C66.91 8.55 67.65 7.76 68.35 7.76C68.47 7.76 68.54 7.77 68.60 7.78L68.61 7.83C68.43 7.87 68.26 8.11 68.26 8.43C68.26 8.89 68.63 9.25 69.23 9.25C69.83 9.25 70.20 8.86 70.20 8.19C70.20 7.38 69.62 6.90 68.74 6.90C67.75 6.90 67.20 7.53 66.93 8.20L66.86 8.20L66.86 6.90L64.26 7.42L64.26 8.06L65.23 8.25L65.23 13.57L64.26 13.57Z"></path></g><defs data-v-fde0c5aa=""><linearGradient data-v-fde0c5aa="" gradientTransform="rotate(25)" id="005ac640-6ed5-44fb-97ba-bafa496465f1" x1="0%" y1="0%" x2="100%" y2="0%"><stop data-v-fde0c5aa="" offset="0%" stop-color="#085B20" stop-opacity="1"></stop><stop data-v-fde0c5aa="" offset="100%" stop-color="#41E296" stop-opacity="1"></stop></linearGradient></defs><g data-v-fde0c5aa="" id="b1b25604-b767-4f67-9141-4a0d11d5e135" stroke="none" fill="url(#005ac640-6ed5-44fb-97ba-bafa496465f1)" transform="matrix(3.24847767038161,0,0,3.24847767038161,98.02436000127484,63.39711751777378)"><path d="M16 23.787L8.102 16 16 8.213 23.898 16 16 23.787zM9.525 16L16 22.383 22.475 16 16 9.617 9.525 16z"></path><path d="M15.915 31.778L-.005 16.084 16.085.222l15.92 15.694-16.09 15.862zM1.419 16.084l14.496 14.29 14.666-14.458-14.496-14.29L1.419 16.084z"></path><path d="M15.5.924h1v30.152h-1z"></path></g><!----></svg>